<svg xmlns="http://www.w3.org/2000/svg" width="231" height="55" viewBox="0 0 231 55">
    <defs>
        <clipPath id="aa7ipamrka">
            <path data-name="사각형 554" style="fill:none" d="M0 0h231v55H0z"/>
        </clipPath>
    </defs>
    <g data-name="그룹 473">
        <g data-name="그룹 618">
            <g data-name="그룹 617" style="clip-path:url(#aa7ipamrka)">
                <path data-name="패스 1937" d="M6.565 1.413H3.074V.691h4.3v.519c0 2.943-1.72 4.5-4.539 4.816v-.713c2.325-.295 3.73-1.66 3.73-3.9zm4.019 8.329h-6.94V6.759h.824V9.04h6.116zm-.174-2.81H9.6v-3.3H7.653v-.711H9.6V.589h.813zM16.468 1.4h-3.49V.691h4.314v.519c0 2.821-1.791 4.094-4.548 4.378v-.713c2.29-.234 3.724-1.375 3.724-3.475zm-3.083 6.642a1.463 1.463 0 0 1 .682-1.242 5.045 5.045 0 0 1 2.839-.662 4.989 4.989 0 0 1 2.829.662 1.466 1.466 0 0 1 .682 1.242 1.5 1.5 0 0 1-.682 1.253 5.1 5.1 0 0 1-2.829.631 5.156 5.156 0 0 1-2.839-.631 1.5 1.5 0 0 1-.682-1.253zm.824 0a.882.882 0 0 0 .438.733 4.218 4.218 0 0 0 2.259.448 4.336 4.336 0 0 0 2.269-.448.886.886 0 0 0 .418-.733.861.861 0 0 0-.418-.733 4.323 4.323 0 0 0-2.269-.458 4.2 4.2 0 0 0-2.259.458.858.858 0 0 0-.438.733zM20.183.589v2.118h1.393v.723h-1.393v2.341h-.814V.589zM23.1 4.9c0-1.711.2-2.974.813-3.666a2.111 2.111 0 0 1 3.033 0c.62.692.814 1.954.814 3.666s-.194 2.963-.814 3.666a2.162 2.162 0 0 1-3.033 0C23.3 7.859 23.1 6.6 23.1 4.9zm3.846 0c0-1.549-.142-2.658-.6-3.187a1.128 1.128 0 0 0-.916-.408 1.193 1.193 0 0 0-.926.408 5.559 5.559 0 0 0-.59 3.187 5.645 5.645 0 0 0 .59 3.2 1.187 1.187 0 0 0 .926.4 1.123 1.123 0 0 0 .916-.4c.454-.547.596-1.666.596-3.2zM30.432.589v9.1h-.824v-9.1zm13.283.876h-2.656v3.553H43.8v.713h-3.209v2.851h3.623v.713h-8.1v-.713h3.653V5.731H36.6V.752h3.073v.713h-2.256v3.553h2.819V.752h3.48zm3.36.9h2.758V.691h.8V5.5h-4.36V.691h.8zm-.4 4.4h6.8v3.1h-.813V7.471H46.68zM49.834 4.8V3.073h-2.758V4.8zM53.476.589v2.26h1.394v.723h-1.394v2.352h-.813V.589zm10.291.876h-2.656v3.553h2.738v.713h-3.205v2.851h3.622v.713h-8.1v-.713h3.653V5.731h-3.164V.752h3.073v.713h-2.259v3.553h2.819V.752h3.479zm3.361.9h2.757V.691h.8V5.5h-4.361V.691h.8zm-.4 4.4h6.8v3.1h-.814V7.471h-5.983zM69.886 4.8V3.073h-2.758V4.8zM73.528.589v2.26h1.394v.723h-1.394v2.352h-.814V.589zm5.927 2.088a2.034 2.034 0 0 1 .763-1.65 2.556 2.556 0 0 1 1.6-.5 2.583 2.583 0 0 1 1.607.5 2.027 2.027 0 0 1 .754 1.65 2.041 2.041 0 0 1-.754 1.65 2.589 2.589 0 0 1-1.607.5 2.562 2.562 0 0 1-1.6-.5 2.048 2.048 0 0 1-.763-1.651zm1.455 5.4v1.064h5.982V9.8H80.1V7.4h5.861V6.342H80.1v-.673h6.67v2.4zm-.662-5.4a1.383 1.383 0 0 0 .468 1.089 1.832 1.832 0 0 0 2.2 0 1.409 1.409 0 0 0 .458-1.089 1.409 1.409 0 0 0-.458-1.089 1.827 1.827 0 0 0-2.2 0 1.383 1.383 0 0 0-.468 1.088zM86.77.589V2.37h1.394v.723H86.77v1.894h-.813V.589zM89.6 4.9c0-1.711.193-2.974.814-3.666a1.925 1.925 0 0 1 1.519-.645 1.946 1.946 0 0 1 1.525.642c.611.692.8 1.954.8 3.666s-.193 2.963-.8 3.666a1.9 1.9 0 0 1-1.525.621 1.882 1.882 0 0 1-1.516-.621C89.8 7.859 89.6 6.6 89.6 4.9zm3.856 0c0-1.549-.152-2.658-.6-3.187a1.191 1.191 0 0 0-.925-.408 1.128 1.128 0 0 0-.916.408c-.458.529-.6 1.638-.6 3.187s.142 2.657.6 3.2a1.123 1.123 0 0 0 .916.4 1.185 1.185 0 0 0 .925-.4 5.535 5.535 0 0 0 .603-3.2zM96.8.589v3.828h1.485v.713H96.8V9.7h-.814V.589zm5.223 5.855a4.178 4.178 0 0 1-2.638 2.626v-.754c1.15-.519 2.229-1.548 2.229-4.062V.691h.814v3.563c0 2.515 1.089 3.513 2.217 4.062v.754a4.329 4.329 0 0 1-2.625-2.626zm5.024-5.855V9.7h-.824V4.682h-2.259v-.723h2.259V.589zm8.46 4.328a3.986 3.986 0 0 1-1.364-1.579 3.263 3.263 0 0 1-1.627 1.527v-.713a2.576 2.576 0 0 0 1.211-2.362V.691h.814V1.77a3.264 3.264 0 0 0 .966 2.312 3.192 3.192 0 0 0 .987-2.312V.691h.8v1.1a2.586 2.586 0 0 0 1.231 2.362v.713a3.224 3.224 0 0 1-1.637-1.537 3.81 3.81 0 0 1-1.381 1.587zm.895 1.2v-.926h.834v.927h3.246v.651h-7.346v-.651zm-3.032 2.6a.88.88 0 0 1 .366-.693 8.8 8.8 0 0 1 6.126 0 .88.88 0 0 1 .366.693.848.848 0 0 1-.366.682 8.666 8.666 0 0 1-6.126 0 .848.848 0 0 1-.366-.685zm.814 0a.281.281 0 0 0 .122.224 8.44 8.44 0 0 0 4.986 0 .256.256 0 0 0 .122-.224.271.271 0 0 0-.122-.234 8.662 8.662 0 0 0-4.986 0 .3.3 0 0 0-.122.231zm6.054-6.317h1.312v.724h-1.312v2.139h-.814V.589h.814zm2.649.734a2.7 2.7 0 0 1 .753-2.034 2.31 2.31 0 0 1 1.608-.569 2.266 2.266 0 0 1 1.6.569 2.665 2.665 0 0 1 .764 2.037 2.673 2.673 0 0 1-.764 2.046 2.222 2.222 0 0 1-1.6.57 2.265 2.265 0 0 1-1.608-.57 2.706 2.706 0 0 1-.753-2.048zm7.631 6.608h-6.939V6.759h.824V9.04h6.114zm-6.838-6.607a2.089 2.089 0 0 0 .5 1.5 1.6 1.6 0 0 0 2.137 0 2.136 2.136 0 0 0 .488-1.5 2.137 2.137 0 0 0-.488-1.5 1.637 1.637 0 0 0-2.137 0 2.09 2.09 0 0 0-.5 1.5zm6.665 3.8h-.814V.589h.814zm6.617 2.128h-3.927V.752h4.294v.713h-3.479v6.893h3.245a3.221 3.221 0 0 0 2.208-.693V.589h.814v3.828h1.483v.713h-1.485V9.7h-.815V8.348a3.365 3.365 0 0 1-2.338.712z" transform="translate(.026 -.068)" style="fill:#5e5e5e"/>
            </g>
        </g>
        <path data-name="패스 1938" d="M13.74 34.87v8.172H0v5.029h31.918v-5.028H19.4V34.87z" transform="translate(.001 .272)" style="fill:#211a19"/>
        <path data-name="패스 1939" d="M34.924 39.6v5.029h23.468v10.057h5.657V39.6z" transform="translate(.309 .314)" style="fill:#211a19"/>
        <g data-name="그룹 620">
            <g data-name="그룹 619" style="clip-path:url(#aa7ipamrka)">
                <path data-name="패스 1940" d="M29.757 21.053v-2.172a2.685 2.685 0 0 0-2.6-2.65H2.7v19.5h27.057v-4.823H19.321v-9.855zM14.5 30.908H7.521v-9.856H14.5z" transform="translate(.025 .081)" style="fill:#211a19"/>
                <path data-name="패스 1941" d="M63.844 23.561v-4.735a2.683 2.683 0 0 0-2.6-2.6h-3.057v19.91h5.658v-7.543H69.5v-5.032z" transform="translate(.514 .081)" style="fill:#211a19"/>
                <path data-name="패스 1942" d="M95.526 16.327h-2.633v11.247h-4.687V16.257H72.667v5.058h10.019v6.025h-9.864v5.134h9.863v8.17h5.52v-8.013h4.687v15.626h5.288V18.993a2.689 2.689 0 0 0-2.654-2.666" transform="translate(.642 .082)" style="fill:#211a19"/>
                <path data-name="패스 1943" d="M103.345 16.326h-2.79v31.931H106v-29.29a2.687 2.687 0 0 0-2.652-2.641" transform="translate(.888 .082)" style="fill:#232121"/>
                <path data-name="패스 1944" d="M138.761 16.4h-3.012v9.5h-4.568a11.894 11.894 0 0 0-2.934-5.66 10.984 10.984 0 0 0-15.925-.042 11.743 11.743 0 0 0-3.184 8.261 11.472 11.472 0 0 0 3.184 8.178 10.314 10.314 0 0 0 7.963 3.438 10.484 10.484 0 0 0 7.963-3.4 11.8 11.8 0 0 0 2.934-5.746h4.568v17.32h5.657V19.064a2.689 2.689 0 0 0-2.645-2.669m-14.538 16.764a5.012 5.012 0 0 1-7.837 0 6.868 6.868 0 0 1-1.593-4.7 7.013 7.013 0 0 1 1.593-4.78 5.082 5.082 0 0 1 7.837 0 7.434 7.434 0 0 1 1.551 4.78 7.28 7.28 0 0 1-1.551 4.7" transform="translate(.964 .083)" style="fill:#211a19"/>
                <path data-name="패스 1945" d="M51.474 16.231h-3.056v4.388h-7.837v-1.746a2.685 2.685 0 0 0-2.6-2.642h-3.057v19.491h19.152V18.886a2.686 2.686 0 0 0-2.6-2.655M48.418 30.9h-7.837v-5.459h7.837z" transform="translate(.309 .081)" style="fill:#211a19"/>
                <path data-name="패스 1946" d="M172.609 29.8a3.95 3.95 0 0 0 3.2-1.458.657.657 0 0 1 .213.9 4.482 4.482 0 0 1-3.963 2.034c-4.831 0-5.319-4.553-5.319-5.671 0-3.063 1.5-5.686 5.1-5.686 4.291 0 4.543 3.944 4.543 4.768 0 .612-.374.7-.683.7h-6.333c0 2.022.556 4.325 3.248 4.421m.941-5.422a.3.3 0 0 0 .323-.249c.124-.8-.179-3.286-2.079-3.286-2.055 0-2.436 2.564-2.436 3.535z" transform="translate(1.473 .117)" style="fill-rule:evenodd;fill:#686868"/>
                <path data-name="패스 1947" d="M225.914 46.311a3.427 3.427 0 0 0 2.928-1.239.615.615 0 0 1 .2.832 4.113 4.113 0 0 1-3.6 1.852c-4.455 0-4.864-4.156-4.864-5.177 0-2.659 1.32-5.179 4.6-5.179a4.026 4.026 0 0 1 4.177 4.339c0 .559-.343.637-.626.637h-5.7c0 1.96.607 3.87 2.878 3.934m.835-4.85a.271.271 0 0 0 .3-.228c.095-.781-.116-2.9-1.864-2.9-1.877 0-2.143 2.172-2.143 3.129z" transform="translate(1.948 .283)" style="fill-rule:evenodd;fill:#686868"/>
                <path data-name="패스 1948" d="M177.438 38.813a.512.512 0 0 1 .047-.409 3.088 3.088 0 0 1 2.162-.89c1.339 0 1.48 1.027 1.48 1.651v6.705a1.056 1.056 0 0 0 1.106 1.21v.42h-4.468v-.4a1.135 1.135 0 0 0 1.093-1.268c0-1.111.006-5.13.006-5.664 0-1.039-.315-1.3-1.425-1.354" transform="translate(1.567 .284)" style="fill-rule:evenodd;fill:#686868"/>
                <path data-name="패스 1949" d="M183.07 38.71a.448.448 0 0 1 .037-.457 2.872 2.872 0 0 1 2.024-.741 1.352 1.352 0 0 1 1.491 1.51 4.225 4.225 0 0 1 3.128-1.606 2.357 2.357 0 0 1 2.57 1.664 4.366 4.366 0 0 1 3.331-1.661A2.307 2.307 0 0 1 198.219 40v5.673c0 .77.157 1.04.892 1.226.051.167.042.341-.3.495-.559.248-2.861.592-2.861-1.547v-5.731c0-1.254-1.835-1.7-3.5-.148v5.825c0 .676.153 1.152 1.1 1.3v.4h-4.464v-.4a1.141 1.141 0 0 0 1.1-1.257v-5.72c0-1.3-1.8-1.665-3.551-.145v5.849a1.078 1.078 0 0 0 1.107 1.264v.416h-4.462v-.4a1.129 1.129 0 0 0 1.091-1.276v-5.91c0-.928-.582-1.146-1.3-1.2" transform="translate(1.616 .283)" style="fill-rule:evenodd;fill:#686868"/>
                <path data-name="패스 1950" d="M219.045 45.289v-5.075c0-3.924-4.35-3.176-5.96-1.191a1.356 1.356 0 0 0-1.485-1.509 3.272 3.272 0 0 0-2.089.817.481.481 0 0 0-.1.486c1 .041 1.419.265 1.419 1.289V45.8a1.138 1.138 0 0 1-1.092 1.305v.4h4.462v-.416a1.075 1.075 0 0 1-1.1-1.269v-5.849c1.75-1.519 3.682-1.209 3.682.239v5.582a1.671 1.671 0 0 0 1.837 1.8 2.833 2.833 0 0 0 1.448-.356.428.428 0 0 0 .176-.458c-1.238-.162-1.194-.892-1.194-1.492" transform="translate(1.849 .283)" style="fill-rule:evenodd;fill:#686868"/>
                <path data-name="패스 1951" d="M204.48 47.78c-2.634 0-4.772-1.576-4.772-5.19s2.138-5.188 4.772-5.188 4.768 1.571 4.768 5.188-2.136 5.19-4.768 5.19m2.271-5.19c0-3.006-.721-4.313-2.271-4.313s-2.28 1.307-2.28 4.313.72 4.31 2.275 4.31 2.271-1.3 2.271-4.31" transform="translate(1.763 .283)" style="fill-rule:evenodd;fill:#686868"/>
                <path data-name="패스 1952" d="M181.046 34.695a1.336 1.336 0 1 0-1.336 1.337 1.334 1.334 0 0 0 1.336-1.337" transform="translate(1.575 .244)" style="fill-rule:evenodd;fill:#686868"/>
                <path data-name="패스 1953" d="M174 37.489a2.072 2.072 0 0 0-2.027-2.854 2.008 2.008 0 0 0-2.129 1.864c-.027.866.194 1.536 1.765 2.3 1.028.5 1.76.869 2.3 1.128.612.294 3.067 1.263 3.067 3.873 0 2.556-2.025 3.956-5.2 3.956-2.416 0-4.553-1.244-4.7-2.926a1.831 1.831 0 0 1 1.731-2.076c.286-.034.614.052.667.281a2.54 2.54 0 0 0 2.371 3.758 2.265 2.265 0 0 0 2.619-2.19c-.023-1.405-.813-1.958-1.968-2.515-.928-.446-1.693-.836-2.379-1.172a4.017 4.017 0 0 1-2.495-3.62c0-2.112 1.723-3.593 4.4-3.593 2.289 0 4.108 1.167 4.108 2.7a1.489 1.489 0 0 1-1.661 1.383.525.525 0 0 1-.468-.3" transform="translate(1.475 .248)" style="fill-rule:evenodd;fill:#686868"/>
                <path data-name="패스 1954" d="M151.6 16.531h5.677c3.482 0 8.128 1.065 8.128 7.316 0 4.675-2.679 7.292-7.913 7.292h-5.914V30.5c.892-.123 1.465-.411 1.465-1.7V18.7c0-.841-.282-1.4-1.443-1.513zm4.2 1.1v12.314h1.879c3.594 0 4.881-2.481 4.881-6.2 0-3.54-1.3-6.122-4.856-6.122z" transform="translate(1.339 .084)" style="fill-rule:evenodd;fill:#686868"/>
                <path data-name="패스 1955" d="M162.609 33.7a3.081 3.081 0 1 0 3.08 3.081 3.078 3.078 0 0 0-3.08-3.081" transform="translate(1.409 .248)" style="fill:#009fc9;fill-rule:evenodd"/>
                <path data-name="패스 1956" d="M154.789 41.519a3.082 3.082 0 1 0 3.081 3.081 3.082 3.082 0 0 0-3.081-3.082" transform="translate(1.34 .322)" style="fill:#009fc9;fill-rule:evenodd"/>
                <path data-name="패스 1957" d="M162.5 41.645c-2.963-.228-4.5-1.708-4.7-4.853a3 3 0 0 0-3.013-3.091 3.058 3.058 0 1 0 .057 6.116c3.157.22 4.557 1.645 4.785 4.756a3.131 3.131 0 0 0 3.049 3.184 3.081 3.081 0 0 0 3.08-3.082c0-1.605-.99-2.855-3.254-3.03" transform="translate(1.34 .248)" style="fill:#009fc9;fill-rule:evenodd"/>
            </g>
        </g>
    </g>
</svg>
